<svg width="1100" height="1100" viewBox="0 0 1100 1100" fill="none" xmlns="http://www.w3.org/2000/svg">
<circle cx="550" cy="550" r="550" fill="white"/>
<circle cx="540.5" cy="492.5" r="78.5" stroke="#82CDC2" stroke-width="40"/>
<path d="M1068 493.5L600 527.708L600 459.292L1068 493.5Z" fill="#82CDC2"/>
<path d="M542.5 228L558.521 369H526.479L542.5 228Z" fill="#82CDC2"/>
<path d="M669.068 259.68L570.796 288.851L566.746 265.879L669.068 259.68Z" fill="#82CDC2"/>
<path d="M582 493H1068V525H582V493Z" fill="white"/>
<path d="M8 482.5L476 448.292L476 516.708L8 482.5Z" fill="#82CDC2"/>
<path d="M515 483L8.00001 483L8 449L515 449L515 483Z" fill="white"/>
<rect x="563.401" y="251.223" width="106.819" height="17.6872" transform="rotate(-5 563.401 251.223)" fill="white"/>
<path d="M415.035 254.041L516.565 268.181L510.74 290.769L415.035 254.041Z" fill="#82CDC2"/>
<rect x="507.715" y="305.494" width="106.819" height="17.6872" transform="rotate(-160.538 507.715 305.494)" fill="white"/>
<path d="M210.8 786.6C200.133 786.6 189.933 785 180.2 781.8C170.467 778.467 162.8 774.2 157.2 769L164.6 753.4C169.933 758.067 176.733 761.933 185 765C193.267 768.067 201.867 769.6 210.8 769.6C218.933 769.6 225.533 768.667 230.6 766.8C235.667 764.933 239.4 762.4 241.8 759.2C244.2 755.867 245.4 752.133 245.4 748C245.4 743.2 243.8 739.333 240.6 736.4C237.533 733.467 233.467 731.133 228.4 729.4C223.467 727.533 218 725.933 212 724.6C206 723.267 199.933 721.733 193.8 720C187.8 718.133 182.267 715.8 177.2 713C172.267 710.2 168.267 706.467 165.2 701.8C162.133 697 160.6 690.867 160.6 683.4C160.6 676.2 162.467 669.6 166.2 663.6C170.067 657.467 175.933 652.6 183.8 649C191.8 645.267 201.933 643.4 214.2 643.4C222.333 643.4 230.4 644.467 238.4 646.6C246.4 648.733 253.333 651.8 259.2 655.8L252.6 671.8C246.6 667.8 240.267 664.933 233.6 663.2C226.933 661.333 220.467 660.4 214.2 660.4C206.333 660.4 199.867 661.4 194.8 663.4C189.733 665.4 186 668.067 183.6 671.4C181.333 674.733 180.2 678.467 180.2 682.6C180.2 687.533 181.733 691.467 184.8 694.4C188 697.333 192.067 699.667 197 701.4C202.067 703.133 207.6 704.733 213.6 706.2C219.6 707.533 225.6 709.067 231.6 710.8C237.733 712.533 243.267 714.8 248.2 717.6C253.267 720.4 257.333 724.133 260.4 728.8C263.467 733.467 265 739.467 265 746.8C265 753.867 263.067 760.467 259.2 766.6C255.333 772.6 249.333 777.467 241.2 781.2C233.2 784.8 223.067 786.6 210.8 786.6ZM311.819 751.2L310.819 726.8L390.219 645H413.019L351.619 709.8L340.419 722.2L311.819 751.2ZM294.219 785V645H314.219V785H294.219ZM393.419 785L336.019 718.2L349.419 703.4L416.819 785H393.419ZM462.198 785V731.4L466.798 743.8L406.598 645H427.998L478.598 728.4H466.998L517.798 645H537.598L477.598 743.8L481.998 731.4V785H462.198ZM629.602 711.2H701.802V728.4H629.602V711.2ZM631.602 785H611.602V645H710.402V662.4H631.602V785ZM738.555 785V645H758.555V767.6H834.355V785H738.555ZM876.456 785V731.4L881.056 743.8L820.856 645H842.256L892.856 728.4H881.256L932.056 645H951.856L891.856 743.8L896.256 731.4V785H876.456Z" fill="#82CDC2"/>
</svg>
